<svg xmlns="http://www.w3.org/2000/svg" viewBox="0 0 100 125" x="0px" y="0px"><path d="M75.38,24.22c-1,0-2,.08-2.98,.23-1.54-4.27-5.65-7.28-10.33-7.28-1.37,0-2.73,.26-4.01,.76-3.09-3.72-7.67-5.9-12.57-5.9-7.79,0-14.34,5.44-15.96,12.81-1.6-.41-3.24-.62-4.91-.62-10.82,0-19.62,8.8-19.62,19.62s8.8,19.62,19.62,19.62h16.95v-4.21H24.62c-8.5,0-15.41-6.91-15.41-15.41s6.91-15.41,15.41-15.41c2.02,0,3.99,.39,5.85,1.15l2.75,1.13,.15-2.97c.33-6.45,5.66-11.5,12.12-11.5,4.11,0,7.91,2.06,10.17,5.51l1.12,1.72,1.75-1.08c1.07-.66,2.3-1.01,3.54-1.01,3.35,0,6.23,2.51,6.69,5.83l.33,2.36,2.3-.61c1.3-.35,2.64-.52,3.99-.52,8.5,0,15.41,6.91,15.41,15.41s-6.91,15.41-15.41,15.41h-17.21v4.21h17.21c10.82,0,19.62-8.8,19.62-19.62s-8.8-19.62-19.62-19.62Z"/><polygon points="53.27 47.89 46.73 47.89 46.73 77.15 41.12 71.54 41.12 79.08 50 87.96 58.88 79.08 58.88 71.54 53.27 77.15 53.27 47.89"/><text x="0" y="115" fill="#000000" font-size="5px" font-weight="bold" font-family="'Helvetica Neue', Helvetica, Arial-Unicode, Arial, Sans-serif">Created by Dorothea C. Cornelius</text><text x="0" y="120" fill="#000000" font-size="5px" font-weight="bold" font-family="'Helvetica Neue', Helvetica, Arial-Unicode, Arial, Sans-serif">from the Noun Project</text></svg>